<svg xmlns="http://www.w3.org/2000/svg" width="256" height="241" xml:space="preserve"><path d="M254 188V2H2v186h111v29H75v22h106v-22h-38v-29h111zM19 19h217v151H19V19zm153.651 96.573h-5.158v8.597c0 9.529-7.702 17.193-17.193 17.193h-8.599v8.597H93.563l.028-34.019c-8.453-8.02-13.731-19.378-13.731-31.977 0-19.297 12.371-35.727 29.587-41.667v28.122c-7.652 3.226-13.038 10.803-13.038 19.616 0 11.25 8.778 20.482 19.843 21.223 2.341 8.571 10.193 14.892 19.496 14.892h9.379a6.086 6.086 0 0 0 5.69 3.939 6.088 6.088 0 0 0 0-12.176 6.085 6.085 0 0 0-5.69 3.939h-9.379c-6.97 0-12.904-4.506-15.051-10.757 10.31-1.467 18.265-10.35 18.265-21.06 0-9.03-5.657-16.759-13.611-19.842V39.959c11.348.44 21.606 5.258 29.146 12.759 7.915 7.874 12.877 18.578 12.998 30.617v6.447l8.404 21.125c.9 2.264-.817 4.666-3.248 4.666zM160.16 89.766c0-2.622-2.113-4.743-4.724-4.743s-4.724 2.122-4.724 4.743 2.113 4.743 4.724 4.743a4.73 4.73 0 0 0 4.724-4.743zm-42.476 10.798c5.807 0 10.531-4.724 10.531-10.531s-4.724-10.531-10.531-10.531-10.531 4.724-10.531 10.531 4.725 10.531 10.531 10.531z"/></svg>