<svg height="479pt" viewBox="0 -64 479.9865 479" width="479pt" xmlns="http://www.w3.org/2000/svg"><path d="m475.664062 121.386719-232-120c-2.300781-1.191407-5.039062-1.191407-7.34375 0l-232 120c-2.652343 1.375-4.320312 4.113281-4.320312 7.101562 0 2.992188 1.667969 5.730469 4.320312 7.105469l107.671876 55.695312v89.199219c0 31.929688 55.023437 56 128 56 72.976562 0 128-24.070312 128-56v-89.199219l48-24.800781v43.503907c-9.542969 3.375-15.945313 12.375-16 22.496093v112c0 4.417969 3.582031 8 8 8h32c4.417968 0 8-3.582031 8-8v-112c-.039063-10.132812-6.445313-19.148437-16-22.527343v-51.773438l43.671874-22.59375c2.65625-1.375 4.324219-4.113281 4.324219-7.105469 0-2.988281-1.667969-5.726562-4.324219-7.101562zm-43.671874 215.101562h-16v-104c0-4.417969 3.582031-8 8-8 4.417968 0 8 3.582031 8 8zm-80-56c0 18.882813-47.894532 40-112 40-64.101563 0-112-21.117187-112-40v-80.917969l108.328124 56c2.300782 1.199219 5.042969 1.199219 7.34375 0l108.328126-56zm71.816406-136.085937-182.785156-23.847656c-4.382813-.570313-8.394532 2.519531-8.964844 6.902343-.570313 4.382813 2.519531 8.398438 6.902344 8.96875l159.9375 20.863281-42.554688 22.015626-116.351562 60.175781-116.328126-60.175781h-.046874l-98.207032-50.816407 214.582032-110.992187 214.578124 110.992187zm0 0"/></svg>