<svg xmlns="http://www.w3.org/2000/svg" viewBox="0 0 2625.901 1190.481" xml:space="preserve"><path d="M34.05 754.177 260.449 59.388c3.973-12.193 17.405-18.511 29.331-13.796L450.3 109.05c11.032 4.361 16.701 16.612 12.886 27.844L228.404 828.041c-4.084 12.023-17.387 18.195-29.205 13.548L47.062 781.773c-10.956-4.307-16.659-16.403-13.012-27.596zM512.452 146.721 738.37 249.876c10.19 4.653 15.248 16.202 11.805 26.861-51.301 158.78-127.144 330.542-215.813 509.09-5.15 10.371-17.447 14.999-28.151 10.582l-186.035-76.75c-10.664-4.4-16.131-16.279-12.534-27.241L482.36 159.897c4.097-12.485 18.139-18.634 30.092-13.176zM2194.5 151.303l154.325-49.576c11.015-3.539 22.813 2.528 26.342 13.547l216.778 676.841c3.676 11.477-3.073 23.68-14.748 26.668l-170.851 43.725c-10.89 2.787-22.038-3.523-25.252-14.295l-200.253-670.99c-3.257-10.917 2.813-22.435 13.659-25.92zM1936.852 237.567l198.328-66.665c11.853-3.984 24.64 2.696 28.14 14.7l157.967 541.733c3.464 11.88-3.544 24.28-15.509 27.44L2114.822 805.2c-10.911 2.881-22.232-2.963-26.218-13.52-69.557-184.232-127.009-361.498-166.175-528.244-2.596-11.049 3.665-22.253 14.423-25.869zM788.771 277.067c2.318-3.095 86.356 24.978 123.298 42.296 35.479 16.633 7.389-16.881 11.116-11.468-2.446-3.552 3.118-4.123 17.964-8.487 83.524-48.862 116.036-70.897 179.824-115.057 88.698-63.754 142.86-35.771 152.891-16.721 2.935 5.573-9.704 6.832-90.635 72.953-40.006 32.685-50.324 69.163-73.637 222.918-6.349 40.187-6.675 75.096 11.38 93.719 22.594 23.304 56.956 32.75 100.748 33.806 37.765.91 68.96-13.167 93.719-44.517 30.349-38.427 49.263-82.258 57.905-130.872 4.431-27.971 3.869-34.235 10.414-32.346 85.828 11.274 162.307 31.347 224.553 64.813 0 0 283.359 163.668 305.717 190.325 19.284 22.992 14.787 52.355-.46 83.469-13.749 28.055-30.904 40.644-59.913 36.818-15.229-2.008-85.351-37.446-104.43-47.529-21.205-12.112-81.327-32.588-88.699-35.479-8.093-3.174-7.691 3.114-4.605 4.416 318.333 134.346 146.188 217.832 146.188 217.832-33.561 14.629-84.082-12.773-176.058-60.583-31.561-16.405-30.696-16.537-32.179-14.255-4.894 7.533 53.868 32.478 83.055 58.102 14.905 13.086 49.956 25.438 34.81 71.294-13.943 42.215-59.83 47.947-68.616 46.86-40.786-5.05-75.703-31.001-163.313-67.653-15.393-6.44 76.117 57.63 74.279 83.719-1.774 25.192-43.179 71.225-72.298 59.579-12.42-4.968-32.535-8.758-48.993-21.505-12.396-9.601 13.546-23.91-2.51-58.24-19.617-41.943-50.35-59.21-83.845-59.872l-33.858.238c-4.48.031-3.031-7.829-1.036-12.287 2.415-5.396 2.895-11.995-1.004-18.2-11.673-18.577-5.146-33.806-62.131-56.106-18.819-7.364-52.131-13.849-80.707 4.519 0 0-33.346 21.547-50.709 60.248-1.211 2.699-1.362 4.342-8.073 7.188a2.083 2.083 0 0 1-2.775-1.203c-13.586-37.616-63.687-74.875-133.747-72.635-45.277 1.447-48.566 23.636-67.402 14.811-12.774-5.985-85.577-38.701-100.288-39.161-13.083-.409-14.978-10.165-14.533-9.165-.935-2.103 1.641-2.658 3.425-3.324 19.809-7.391 22.189-1.137 51.085-16.066-165.459-.036-152.619-2.37-252.477-42.822 0 0 137.458-302.361 196.56-474.37zM737.038 828.878l114.773 44.042c6.439 2.471 9.257 10.047 5.977 16.113-35.332 65.338-108.813 62.468-123.24.555-3.85-16.521-3.646-36.022-3.021-57.038.082-2.794 2.901-4.674 5.511-3.672z"/><path d="M920.814 999.039c-20.772-45.548-21.723-91.841 23.095-116.48 40.157-22.076 84.73-11.524 124.513 26.61 18.014 17.267 23.106 38.428 9.288 62.507-47.783 83.272-139.474 65.566-156.896 27.363zM1246.704 870.716c-38.177-19.264-85.262-3.845-104.576 34.433l-31.872 63.164c-19.289 38.227-3.794 85.287 34.433 104.576 38.177 19.264 85.261 3.844 104.576-34.433l31.872-63.164c19.289-38.228 3.794-85.287-34.433-104.576zM1374.854 971.73c-31.693-15.992-70.78-3.192-86.814 28.585l-26.459 52.436c-16.013 31.735-3.15 70.801 28.585 86.814 31.693 15.992 70.78 3.192 86.814-28.585l26.459-52.436c16.012-31.734 3.149-70.801-28.585-86.814zM1352.927 336.311c-2.674 4.887.748 10.451.837 17.907.834 70.333-43.841 200.308-114.137 213.546-41.635 7.84-137.201-.971-112.296-104.263 36.292-169.505 38.947-194.909 91.376-225.261 126.861-84.629 92.687-85.348 154.72-113.676 25.231-11.522 51.209-10.826 76.063 2.385 63.269 33.63 190.846 100.865 247.017 145.348 26.894 21.299 41.03 59.202 46.001 103.278.435 3.86 7.005 5.016 7.72-3.618 11.127-134.295-72.167-65.389 122.876-112.35 8.567-2.063 17.171 3.242 19.105 11.839l27.968 113.941s4.644 13.054-17.196 11.799c0 0 16.728 1.586 22.593 11.422 8.406 14.096 23.173 64.042 37.781 123.885 0 0 2.385 7.531-7.656 7.029 0 0-25.229.628-25.982 2.761 27.641-1.185 40.067-.271 46.065 22.844 49.056 151.865 52.62 153.638 41.358 152.44-66.825 2.608-63.949 5.264-73.051-2.636-3.477-3.334 2.978-4.017 4.079-6.276 12.316-25.257 4.079-74.87-27.237-97.276-68.012-48.661-49.736-42.016-181.246-116.04-7.296-4.107-173.034-102.736-195.806-103.426-44.687-10.009-88.716-20.941-132.922-25.605-17.031-1.797-7.775-14.179.753-18.325 7.487-3.621 13.258-9.894 18.2-17.447.271-5.277-.865-4.514-4.895-3.138-39.417 41.858-64.095 32.208-72.088 8.913z"/></svg>