<svg xmlns="http://www.w3.org/2000/svg" viewBox="0 0 100 100" xml:space="preserve"><path d="M75.036 52.356c4.69 1.377 3.886 4.781 3.872 7.063h-11.7c-.421-1.381-1.46-2.671-3.942-3.396l-.785-.235c-3.284-.955-5.042-1.471-5.502-2.506-.112-.373-.078-.787 1.017-1.185 3.519-1.024 5.302-1.56 5.723-2.878h.222a1.82 1.82 0 0 1-.173-.168c-1.739-1.677-3.067-4.949-3.067-7.591 0-3.736 2.86-6.191 5.566-6.191 2.705 0 5.427 2.652 5.427 6.393 0 2.642-1.478 5.811-3.293 7.432.374 1.525 2.414 2.024 6.635 3.262z"/><path d="M66.957 68.003H30.61a26.436 26.436 0 0 0-.089-1.157c-.112-1.436-.224-2.914.178-4.265.491-1.585 1.764-2.978 4.71-3.836l1.139-.364c5.179-1.479 7.948-2.314 8.863-4.265l.291-.491-.022-.622a.82.82 0 0 1-.201-.193 10.826 10.826 0 0 1-.916-1.027c-2.009-2.552-3.438-6.494-3.438-9.75 0-4.159 3.082-8.573 7.68-8.573 3.595 0 7.458 3.558 7.458 8.872 0 3.387-1.764 7.585-4.175 10.05-.157.173-.335.321-.491.472l-.29.258.089.387c.625 2.441 3.438 3.277 9.086 4.884l1.161.364c2.925.858 4.309 2.273 4.912 3.836h.022c.559 1.521.491 3.173.424 4.715-.022.233-.022.49-.044.705z"/><path d="M22.434 52.356c-4.694 1.377-3.884 4.781-3.872 7.063h11.696c.424-1.381 1.459-2.671 3.946-3.396l.782-.235c3.287-.955 5.046-1.471 5.503-2.506-.125-.411.102-1.027-1.019-1.185-3.517-1.024-5.3-1.56-5.72-2.878h-.22c.059-.053.119-.105.172-.168 1.739-1.677 3.068-4.949 3.068-7.591 0-3.736-2.859-6.191-5.566-6.191-2.708 0-5.427 2.652-5.427 6.393 0 2.642 1.472 5.811 3.287 7.432-.372 1.525-2.415 2.024-6.63 3.262z"/></svg>