<svg xmlns="http://www.w3.org/2000/svg" viewBox="0 0 383.631 383.631" style="enable-background:new 0 0 383.631 383.631" xml:space="preserve"><path d="M47.331 210.289a8.954 8.954 0 0 1-5.723 2.537l-.02.001a8.97 8.97 0 0 1-6.173-1.965l-.001-.001-.019-.015-.006-.004a.127.127 0 0 1-.013-.011l-.01-.008-.009-.007-.013-.01-.006-.005-.016-.013-.138-.116-.018-.015-.003-.002-.016-.013-.006-.005-.013-.011-.009-.007-.01-.009a.174.174 0 0 0-.014-.012l-.005-.005a9.498 9.498 0 0 1-.595-.575l-31.99-33.36a9 9 0 0 1 12.991-12.46l16.426 17.125c3.887-58.736 40.101-111.535 95.123-135.771 39.08-17.212 82.524-18.177 122.331-2.714 39.805 15.462 71.206 45.501 88.417 84.582a9 9 0 1 1-16.472 7.255c-15.273-34.68-43.139-61.336-78.462-75.058-35.322-13.721-73.875-12.867-108.558 2.409-48.959 21.565-81.138 68.614-84.447 120.901l18.381-17.632a9 9 0 1 1 12.461 12.99l-33.365 32.004zm333.756-2.88-32.648-33.615a8.997 8.997 0 0 0-7-2.769l-.017.001a8.963 8.963 0 0 0-5.843 2.609l-32.732 32.273a9 9 0 0 0 12.637 12.818l17.594-17.346c-3.513 52.052-35.643 98.837-84.405 120.314-18.545 8.168-37.91 12.033-56.982 12.032-54.556-.002-106.675-31.636-130.038-84.682a9 9 0 0 0-16.472 7.255c26.329 59.781 85.053 95.43 146.536 95.426 21.487-.001 43.319-4.357 64.213-13.559 55.03-24.239 91.261-77.082 95.127-135.845l17.12 17.627a9.001 9.001 0 0 0 12.727.186c3.563-3.461 3.646-9.159.183-12.725z"/></svg>