<svg xmlns="http://www.w3.org/2000/svg" width="48" height="48"><path fill="#03A9F4" d="M21 31a2 2 0 0 0 2 2h17a2 2 0 0 0 2-2V16a2 2 0 0 0-2-2H23a2 2 0 0 0-2 2v15z"/><path fill="#B3E5FC" d="M42 16.975V16a1.98 1.98 0 0 0-.367-1.148l-11.264 6.932-7.542-4.656L22.125 19l8.459 5L42 16.975z"/><path fill="#0277BD" d="m27 41.46-21-4v-28l21-4z"/><path fill="#FFF" d="M21.216 18.311c-1.098-1.275-2.546-1.913-4.328-1.913-1.892 0-3.408.669-4.554 2.003-1.144 1.337-1.719 3.088-1.719 5.246 0 2.045.564 3.714 1.69 4.986 1.126 1.273 2.592 1.91 4.378 1.91 1.84 0 3.331-.652 4.474-1.975 1.143-1.313 1.712-3.043 1.712-5.199 0-2.088-.551-3.774-1.653-5.058zm-2.167 8.424c-.568.769-1.339 1.152-2.313 1.152-.939 0-1.699-.394-2.285-1.187-.581-.785-.87-1.861-.87-3.211 0-1.336.289-2.414.87-3.225.586-.81 1.368-1.211 2.355-1.211.962 0 1.718.393 2.267 1.178.555.795.833 1.895.833 3.31.001 1.365-.288 2.427-.857 3.194z"/></svg>