<svg xmlns="http://www.w3.org/2000/svg" width="48" height="48"><path fill="#2395ec" d="M47.527 19.847c-.13-.102-1.345-1.007-3.908-1.007-.677.003-1.352.06-2.019.171-.496-3.354-3.219-4.93-3.345-5.003l-.688-.392-.453.644c-.567.866-1.068 1.76-1.311 2.763-.459 1.915-.18 3.713.806 5.25-1.192.655-3.223.713-3.609.727H1.582a1.493 1.493 0 0 0-1.501 1.474c-.037 2.733.353 5.553 1.306 8.119 1.089 2.818 2.71 4.894 4.818 6.164C8.567 40.184 12.405 41 16.756 41a31.886 31.886 0 0 0 5.859-.524 24.734 24.734 0 0 0 7.647-2.74 20.988 20.988 0 0 0 5.219-4.215c2.505-2.798 3.997-5.913 5.107-8.682h.442c2.743 0 4.429-1.083 5.359-1.99a5.777 5.777 0 0 0 1.414-2.065l.197-.568-.473-.369z"/><path fill="#2395ec" d="M8 22H5a1 1 0 0 1-1-1v-3a1 1 0 0 1 1-1h3a1 1 0 0 1 1 1v3a1 1 0 0 1-1 1zM14 22h-3a1 1 0 0 1-1-1v-3a1 1 0 0 1 1-1h3a1 1 0 0 1 1 1v3a1 1 0 0 1-1 1zM20 22h-3a1 1 0 0 1-1-1v-3a1 1 0 0 1 1-1h3a1 1 0 0 1 1 1v3a1 1 0 0 1-1 1zM26 22h-3a1 1 0 0 1-1-1v-3a1 1 0 0 1 1-1h3a1 1 0 0 1 1 1v3a1 1 0 0 1-1 1zM14 16h-3a1 1 0 0 1-1-1v-3a1 1 0 0 1 1-1h3a1 1 0 0 1 1 1v3a1 1 0 0 1-1 1zM20 16h-3a1 1 0 0 1-1-1v-3a1 1 0 0 1 1-1h3a1 1 0 0 1 1 1v3a1 1 0 0 1-1 1zM26 16h-3a1 1 0 0 1-1-1v-3a1 1 0 0 1 1-1h3a1 1 0 0 1 1 1v3a1 1 0 0 1-1 1zM26 10h-3a1 1 0 0 1-1-1V6a1 1 0 0 1 1-1h3a1 1 0 0 1 1 1v3a1 1 0 0 1-1 1zM32 22h-3a1 1 0 0 1-1-1v-3a1 1 0 0 1 1-1h3a1 1 0 0 1 1 1v3a1 1 0 0 1-1 1z"/></svg>