<svg height="479pt" viewBox="0 -64 479.986 479" width="479pt" xmlns="http://www.w3.org/2000/svg"><path d="m475.664 121.387-232-120a7.991 7.991 0 0 0-7.344 0l-232 120a8.001 8.001 0 0 0 0 14.207l107.672 55.695v89.2c0 31.929 55.024 56 128 56 72.977 0 128-24.071 128-56v-89.2l48-24.8v43.503a24.002 24.002 0 0 0-16 22.496v112a8 8 0 0 0 8 8h32a8 8 0 0 0 8-8v-112a23.998 23.998 0 0 0-16-22.527v-51.773l43.672-22.594a7.998 7.998 0 0 0 0-14.207zm-43.672 215.101h-16v-104a8 8 0 0 1 16 0zm-80-56c0 18.883-47.894 40-112 40-64.101 0-112-21.117-112-40V199.57l108.328 56c2.301 1.2 5.043 1.2 7.344 0l108.328-56zm71.817-136.086-182.786-23.847a7.999 7.999 0 0 0-8.964 6.902 8.002 8.002 0 0 0 6.902 8.969l159.937 20.863-42.554 22.016-116.352 60.175-116.328-60.175h-.047L25.41 128.488 239.992 17.496 454.57 128.488zm0 0"/></svg>