<svg xmlns="http://www.w3.org/2000/svg" width="48" height="48"><path fill="#FF80AB" d="M32.5 13c-5.2 0-9.5 1.1-9.5 3v18c0 1.8 4.3 3 9.5 3s9.5-1.2 9.5-3V16.1c0-1.9-4.3-3.1-9.5-3.1z"/><path fill="#EC407A" d="M42 22.5V25c-2.6 1.9-7.6 2-9.5 2-1.9 0-6.7-.2-9.5-1.7v-2.8c0 1.4 4.3 2.5 9.5 2.5s9.5-1.1 9.5-2.5zM32.5 19c-5.2 0-9.5-1.1-9.5-2.5v2.8c2.8 1.5 7.6 1.7 9.5 1.7 1.9 0 6.9-.1 9.5-2v-2.5c0 1.4-4.3 2.5-9.5 2.5zm0 12c-5.2 0-9.5-1.1-9.5-2.5v2.8c2.8 1.5 7.6 1.7 9.5 1.7 1.9 0 6.8-.2 9.5-2v-2.5c0 1.4-4.3 2.5-9.5 2.5z"/><path fill="#C51162" d="M27 42 6 38V10l21-4z"/><path fill="#FFF" d="M17.4 16.5c-1.1.1-2.2.2-3.3.2-1.4 5-2.8 10-4.1 15 .9.1 1.8.1 2.7.2.3-1.1.6-2.2.8-3.4 1.4.1 2.9.1 4.3.1l.9 3.6c1.1.1 2.1.2 3.2.3-1.4-5.3-2.9-10.7-4.5-16zM14.2 26c.5-2.2 1.2-4.4 1.5-6.7.4 2.3 1.1 4.4 1.6 6.7h-3.1z"/></svg>